<?xml version="1.0" encoding="UTF-8" standalone="no"?>
<!-- Created with Inkscape (http://www.inkscape.org/) -->

<svg
   width="17cm"
   height="1cm"
   viewBox="0 0 170 9.9999995"
   version="1.1"
   id="svg31780"
   inkscape:version="1.1.2 (0a00cf5339, 2022-02-04)"
   sodipodi:docname="leaf_separator_1.svg"
   xmlns:inkscape="http://www.inkscape.org/namespaces/inkscape"
   xmlns:sodipodi="http://sodipodi.sourceforge.net/DTD/sodipodi-0.dtd"
   xmlns="http://www.w3.org/2000/svg"
   xmlns:svg="http://www.w3.org/2000/svg">
  <sodipodi:namedview
     id="namedview31782"
     pagecolor="#ffffff"
     bordercolor="#666666"
     borderopacity="1.0"
     inkscape:pageshadow="2"
     inkscape:pageopacity="0.0"
     inkscape:pagecheckerboard="0"
     inkscape:document-units="mm"
     showgrid="true"
     units="cm"
     inkscape:zoom="4.4783891"
     inkscape:cx="316.63171"
     inkscape:cy="5.9173062"
     inkscape:window-width="1920"
     inkscape:window-height="962"
     inkscape:window-x="0"
     inkscape:window-y="0"
     inkscape:window-maximized="1"
     inkscape:current-layer="layer1">
    <inkscape:grid
       type="xygrid"
       id="grid31784"
       units="mm"
       spacingx="0.099999994"
       spacingy="0.099999994"
       empspacing="4"
       enabled="true"
       visible="true" />
  </sodipodi:namedview>
  <defs
     id="defs31777" />
  <g
     inkscape:label="Layer 1"
     inkscape:groupmode="layer"
     id="layer1">
    <circle
       id="path32437"
       style="fill:#0c0000;stroke:#000000;stroke-width:0.264583"
       cx="91.196442"
       cy="7.9377031"
       r="1.1987146e-05" />
    <circle
       id="path32439"
       style="fill:#0c0000;stroke:#000000;stroke-width:0.264583"
       cx="91.196442"
       cy="7.9377031"
       r="1.1987146e-05" />
    <g
       id="g36330"
       transform="rotate(11.701608,95.534115,30.975052)">
      <g
         id="g36328">
        <path
           style="fill:#0c0000;stroke-width:0.165;stroke-linecap:round;stroke-linejoin:round;stroke-miterlimit:4;stroke-dasharray:none"
           id="path36320"
           d="m 81.198999,7.2777921 c -0.0032,-0.069053 -0.01934,-0.1365997 -0.03265,-0.2041949 -0.0091,-0.063813 -0.01746,-0.1277289 -0.02572,-0.1916581 -0.0021,-0.017206 -0.0049,-0.034356 -0.0067,-0.051612 -0.0021,-0.019942 -0.0033,-0.039963 -0.0049,-0.059945 -0.01365,-0.1501923 -0.02921,-0.3001946 -0.04464,-0.4502152 -0.01021,-0.086129 -0.0114,-0.172928 -0.01587,-0.2594579 -0.0016,-0.029807 -0.0039,-0.059578 -0.0049,-0.089408 -7.94e-4,-0.022429 -0.0021,-0.1698379 -0.0024,-0.1913149 -1.03e-4,-0.078801 -5.29e-4,-0.1092549 5.3e-4,-0.1874909 2.64e-4,-0.029394 2.19e-4,-0.058814 0.0016,-0.088174 0.0016,-0.030489 0.0046,-0.060883 0.0072,-0.091293 0.008,-0.09118 0.009,-0.094025 0.01984,-0.184884 0.02223,-0.1311246 0.04518,-0.2621719 0.07688,-0.3913976 0.01786,-0.072824 0.02838,-0.1082593 0.04848,-0.1801728 0.03294,-0.094567 0.05877,-0.1914498 0.09018,-0.2864977 0.01093,-0.033093 0.0232,-0.065727 0.03466,-0.098647 0.0292,-0.083996 0.03669,-0.1068509 0.06469,-0.1899541 0.02775,-0.075396 0.04744,-0.1540894 0.08012,-0.2276923 0.02945,-0.066316 0.06927,-0.126973 0.108493,-0.1876962 0.05159,-0.073104 0.112926,-0.1384958 0.174286,-0.2033373 0.0024,-0.00298 -0.03965,-0.037758 -0.04211,-0.034781 v 0 c -0.07338,0.060277 -0.145632,0.1223275 -0.202843,0.198923 -0.01476,0.020214 -0.03014,0.039987 -0.04427,0.060643 -0.07647,0.1117761 -0.138017,0.2340247 -0.190214,0.3587197 -0.03079,0.078577 -0.04418,0.1100362 -0.07144,0.190986 -0.04345,0.1290288 -0.08013,0.2603164 -0.116814,0.3913746 -0.01929,0.063751 -0.0366,0.1192257 -0.05391,0.18366 -0.0356,0.1325377 -0.06204,0.2674945 -0.07458,0.4042703 -0.0037,0.031716 -0.0078,0.063376 -0.01093,0.095149 -0.0093,0.095047 -0.0072,0.094401 -0.01172,0.1891678 -0.0045,0.09363 -0.01058,0.1872623 -0.0087,0.2810767 0.0044,0.1563423 1.93e-4,0.040311 0.0083,0.1942679 0.0016,0.030033 0.0026,0.060096 0.0043,0.090121 0.0051,0.088148 0.01381,0.1759368 0.02217,0.263816 0.0086,0.074016 0.0099,0.0911 0.02082,0.1644875 0.0038,0.026001 0.0085,0.051885 0.01238,0.077877 0.01048,0.069442 0.01913,0.139196 0.03315,0.2080683 0.0039,0.019778 0.0082,0.039483 0.01175,0.059332 0.003,0.017185 0.0052,0.034511 0.008,0.051745 0.01045,0.065257 0.02151,0.1306875 0.0396,0.1943333 0.0071,0.02734 0.01421,0.056139 0.02252,0.083158 0.0122,0.039681 0.01172,0.034799 0.02606,0.071716 0.01413,0.036317 0.0043,0.014478 0.01807,0.043394 5.29e-4,0.0022 0.03143,-0.00427 0.03098,-0.00646 z" />
        <path
           style="fill:none;fill-opacity:1;stroke:#000000;stroke-width:0.13;stroke-linecap:butt;stroke-linejoin:round;stroke-miterlimit:4;stroke-dasharray:none;stroke-opacity:1"
           d="m 81.220073,6.447133 c 1.355413,-0.041222 1.35175,-1.2041254 1.371002,-1.3929363 0.07097,-0.6960389 -0.506761,-1.9014418 -0.279323,-2.1288809 -0.599806,0.1739387 -1.741966,0.2518482 -2.109015,1.6216927 -0.367048,1.3698444 0.225536,1.8512411 0.615553,1.8874739 0.390015,0.036233 0.401783,0.01265 0.401783,0.012651 z"
           id="path36322"
           sodipodi:nodetypes="cscssc" />
        <path
           style="fill:#0c0000;stroke-width:0.165;stroke-linecap:round;stroke-linejoin:round;stroke-miterlimit:4;stroke-dasharray:none"
           id="path36324"
           d="m 81.198999,7.2777921 c -0.0032,-0.069053 -0.01934,-0.1365997 -0.03265,-0.2041949 -0.0091,-0.063813 -0.01746,-0.1277289 -0.02572,-0.1916581 -0.0021,-0.017206 -0.0049,-0.034356 -0.0067,-0.051612 -0.0021,-0.019942 -0.0033,-0.039963 -0.0049,-0.059945 -0.01365,-0.1501923 -0.02921,-0.3001946 -0.04464,-0.4502152 -0.01021,-0.086129 -0.0114,-0.172928 -0.01587,-0.2594579 -0.0016,-0.029807 -0.0039,-0.059578 -0.0049,-0.089408 -7.94e-4,-0.022429 -0.0021,-0.1698379 -0.0024,-0.1913149 -1.03e-4,-0.078801 -5.29e-4,-0.1092549 5.3e-4,-0.1874909 2.64e-4,-0.029394 2.19e-4,-0.058814 0.0016,-0.088174 0.0016,-0.030489 0.0046,-0.060883 0.0072,-0.091293 0.008,-0.09118 0.009,-0.094025 0.01984,-0.184884 0.02223,-0.1311246 0.04518,-0.2621719 0.07688,-0.3913976 0.01786,-0.072824 0.02838,-0.1082593 0.04848,-0.1801728 0.03294,-0.094567 0.05877,-0.1914498 0.09018,-0.2864977 0.01093,-0.033093 0.0232,-0.065727 0.03466,-0.098647 0.0292,-0.083996 0.03669,-0.1068509 0.06469,-0.1899541 0.02775,-0.075396 0.04744,-0.1540894 0.08012,-0.2276923 0.02945,-0.066316 0.06927,-0.126973 0.108493,-0.1876962 0.05159,-0.073104 0.112926,-0.1384958 0.174286,-0.2033373 0.0024,-0.00298 -0.03965,-0.037758 -0.04211,-0.034781 v 0 c -0.07338,0.060277 -0.145632,0.1223275 -0.202843,0.198923 -0.01476,0.020214 -0.03014,0.039987 -0.04427,0.060643 -0.07647,0.1117761 -0.138017,0.2340247 -0.190214,0.3587197 -0.03079,0.078577 -0.04418,0.1100362 -0.07144,0.190986 -0.04345,0.1290288 -0.08013,0.2603164 -0.116814,0.3913746 -0.01929,0.063751 -0.0366,0.1192257 -0.05391,0.18366 -0.0356,0.1325377 -0.06204,0.2674945 -0.07458,0.4042703 -0.0037,0.031716 -0.0078,0.063376 -0.01093,0.095149 -0.0093,0.095047 -0.0072,0.094401 -0.01172,0.1891678 -0.0045,0.09363 -0.01058,0.1872623 -0.0087,0.2810767 0.0044,0.1563423 1.93e-4,0.040311 0.0083,0.1942679 0.0016,0.030033 0.0026,0.060096 0.0043,0.090121 0.0051,0.088148 0.01381,0.1759368 0.02217,0.263816 0.0086,0.074016 0.0099,0.0911 0.02082,0.1644875 0.0038,0.026001 0.0085,0.051885 0.01238,0.077877 0.01048,0.069442 0.01913,0.139196 0.03315,0.2080683 0.0039,0.019778 0.0082,0.039483 0.01175,0.059332 0.003,0.017185 0.0052,0.034511 0.008,0.051745 0.01045,0.065257 0.02151,0.1306875 0.0396,0.1943333 0.0071,0.02734 0.01421,0.056139 0.02252,0.083158 0.0122,0.039681 0.01172,0.034799 0.02606,0.071716 0.01413,0.036317 0.0043,0.014478 0.01807,0.043394 5.29e-4,0.0022 0.03143,-0.00427 0.03098,-0.00646 z" />
        <path
           style="fill:#050000;fill-opacity:1;stroke:#000000;stroke-width:0.13;stroke-linecap:butt;stroke-linejoin:round;stroke-miterlimit:4;stroke-dasharray:none;stroke-opacity:1"
           d="m 81.220073,6.447133 c 1.355413,-0.041222 1.35175,-1.2041254 1.371002,-1.3929363 0.07097,-0.6960389 -0.506761,-1.9014418 -0.279323,-2.1288809 -0.599806,0.1739387 -1.741966,0.2518482 -2.109015,1.6216927 -0.367048,1.3698444 0.225536,1.8512411 0.615553,1.8874739 0.390015,0.036233 0.401783,0.01265 0.401783,0.012651 z"
           id="path36326"
           sodipodi:nodetypes="cscssc" />
      </g>
    </g>
    <g
       id="g36354"
       transform="matrix(0.55773774,0.92676015,-0.92676015,0.55773774,48.003934,-74.510795)">
      <g
         id="g36352">
        <path
           style="fill:#0c0000;stroke-width:0.165;stroke-linecap:round;stroke-linejoin:round;stroke-miterlimit:4;stroke-dasharray:none"
           id="path36344"
           d="m 81.198999,7.2777921 c -0.0032,-0.069053 -0.01934,-0.1365997 -0.03265,-0.2041949 -0.0091,-0.063813 -0.01746,-0.1277289 -0.02572,-0.1916581 -0.0021,-0.017206 -0.0049,-0.034356 -0.0067,-0.051612 -0.0021,-0.019942 -0.0033,-0.039963 -0.0049,-0.059945 -0.01365,-0.1501923 -0.02921,-0.3001946 -0.04464,-0.4502152 -0.01021,-0.086129 -0.0114,-0.172928 -0.01587,-0.2594579 -0.0016,-0.029807 -0.0039,-0.059578 -0.0049,-0.089408 -7.94e-4,-0.022429 -0.0021,-0.1698379 -0.0024,-0.1913149 -1.03e-4,-0.078801 -5.29e-4,-0.1092549 5.3e-4,-0.1874909 2.64e-4,-0.029394 2.19e-4,-0.058814 0.0016,-0.088174 0.0016,-0.030489 0.0046,-0.060883 0.0072,-0.091293 0.008,-0.09118 0.009,-0.094025 0.01984,-0.184884 0.02223,-0.1311246 0.04518,-0.2621719 0.07688,-0.3913976 0.01786,-0.072824 0.02838,-0.1082593 0.04848,-0.1801728 0.03294,-0.094567 0.05877,-0.1914498 0.09018,-0.2864977 0.01093,-0.033093 0.0232,-0.065727 0.03466,-0.098647 0.0292,-0.083996 0.03669,-0.1068509 0.06469,-0.1899541 0.02775,-0.075396 0.04744,-0.1540894 0.08012,-0.2276923 0.02945,-0.066316 0.06927,-0.126973 0.108493,-0.1876962 0.05159,-0.073104 0.112926,-0.1384958 0.174286,-0.2033373 0.0024,-0.00298 -0.03965,-0.037758 -0.04211,-0.034781 v 0 c -0.07338,0.060277 -0.145632,0.1223275 -0.202843,0.198923 -0.01476,0.020214 -0.03014,0.039987 -0.04427,0.060643 -0.07647,0.1117761 -0.138017,0.2340247 -0.190214,0.3587197 -0.03079,0.078577 -0.04418,0.1100362 -0.07144,0.190986 -0.04345,0.1290288 -0.08013,0.2603164 -0.116814,0.3913746 -0.01929,0.063751 -0.0366,0.1192257 -0.05391,0.18366 -0.0356,0.1325377 -0.06204,0.2674945 -0.07458,0.4042703 -0.0037,0.031716 -0.0078,0.063376 -0.01093,0.095149 -0.0093,0.095047 -0.0072,0.094401 -0.01172,0.1891678 -0.0045,0.09363 -0.01058,0.1872623 -0.0087,0.2810767 0.0044,0.1563423 1.93e-4,0.040311 0.0083,0.1942679 0.0016,0.030033 0.0026,0.060096 0.0043,0.090121 0.0051,0.088148 0.01381,0.1759368 0.02217,0.263816 0.0086,0.074016 0.0099,0.0911 0.02082,0.1644875 0.0038,0.026001 0.0085,0.051885 0.01238,0.077877 0.01048,0.069442 0.01913,0.139196 0.03315,0.2080683 0.0039,0.019778 0.0082,0.039483 0.01175,0.059332 0.003,0.017185 0.0052,0.034511 0.008,0.051745 0.01045,0.065257 0.02151,0.1306875 0.0396,0.1943333 0.0071,0.02734 0.01421,0.056139 0.02252,0.083158 0.0122,0.039681 0.01172,0.034799 0.02606,0.071716 0.01413,0.036317 0.0043,0.014478 0.01807,0.043394 5.29e-4,0.0022 0.03143,-0.00427 0.03098,-0.00646 z" />
        <path
           style="fill:none;fill-opacity:1;stroke:#000000;stroke-width:0.13;stroke-linecap:butt;stroke-linejoin:round;stroke-miterlimit:4;stroke-dasharray:none;stroke-opacity:1"
           d="m 81.220073,6.447133 c 1.355413,-0.041222 1.35175,-1.2041254 1.371002,-1.3929363 0.07097,-0.6960389 -0.506761,-1.9014418 -0.279323,-2.1288809 -0.599806,0.1739387 -1.741966,0.2518482 -2.109015,1.6216927 -0.367048,1.3698444 0.225536,1.8512411 0.615553,1.8874739 0.390015,0.036233 0.401783,0.01265 0.401783,0.012651 z"
           id="path36346"
           sodipodi:nodetypes="cscssc" />
        <path
           style="fill:#0c0000;stroke-width:0.165;stroke-linecap:round;stroke-linejoin:round;stroke-miterlimit:4;stroke-dasharray:none"
           id="path36348"
           d="m 81.198999,7.2777921 c -0.0032,-0.069053 -0.01934,-0.1365997 -0.03265,-0.2041949 -0.0091,-0.063813 -0.01746,-0.1277289 -0.02572,-0.1916581 -0.0021,-0.017206 -0.0049,-0.034356 -0.0067,-0.051612 -0.0021,-0.019942 -0.0033,-0.039963 -0.0049,-0.059945 -0.01365,-0.1501923 -0.02921,-0.3001946 -0.04464,-0.4502152 -0.01021,-0.086129 -0.0114,-0.172928 -0.01587,-0.2594579 -0.0016,-0.029807 -0.0039,-0.059578 -0.0049,-0.089408 -7.94e-4,-0.022429 -0.0021,-0.1698379 -0.0024,-0.1913149 -1.03e-4,-0.078801 -5.29e-4,-0.1092549 5.3e-4,-0.1874909 2.64e-4,-0.029394 2.19e-4,-0.058814 0.0016,-0.088174 0.0016,-0.030489 0.0046,-0.060883 0.0072,-0.091293 0.008,-0.09118 0.009,-0.094025 0.01984,-0.184884 0.02223,-0.1311246 0.04518,-0.2621719 0.07688,-0.3913976 0.01786,-0.072824 0.02838,-0.1082593 0.04848,-0.1801728 0.03294,-0.094567 0.05877,-0.1914498 0.09018,-0.2864977 0.01093,-0.033093 0.0232,-0.065727 0.03466,-0.098647 0.0292,-0.083996 0.03669,-0.1068509 0.06469,-0.1899541 0.02775,-0.075396 0.04744,-0.1540894 0.08012,-0.2276923 0.02945,-0.066316 0.06927,-0.126973 0.108493,-0.1876962 0.05159,-0.073104 0.112926,-0.1384958 0.174286,-0.2033373 0.0024,-0.00298 -0.03965,-0.037758 -0.04211,-0.034781 v 0 c -0.07338,0.060277 -0.145632,0.1223275 -0.202843,0.198923 -0.01476,0.020214 -0.03014,0.039987 -0.04427,0.060643 -0.07647,0.1117761 -0.138017,0.2340247 -0.190214,0.3587197 -0.03079,0.078577 -0.04418,0.1100362 -0.07144,0.190986 -0.04345,0.1290288 -0.08013,0.2603164 -0.116814,0.3913746 -0.01929,0.063751 -0.0366,0.1192257 -0.05391,0.18366 -0.0356,0.1325377 -0.06204,0.2674945 -0.07458,0.4042703 -0.0037,0.031716 -0.0078,0.063376 -0.01093,0.095149 -0.0093,0.095047 -0.0072,0.094401 -0.01172,0.1891678 -0.0045,0.09363 -0.01058,0.1872623 -0.0087,0.2810767 0.0044,0.1563423 1.93e-4,0.040311 0.0083,0.1942679 0.0016,0.030033 0.0026,0.060096 0.0043,0.090121 0.0051,0.088148 0.01381,0.1759368 0.02217,0.263816 0.0086,0.074016 0.0099,0.0911 0.02082,0.1644875 0.0038,0.026001 0.0085,0.051885 0.01238,0.077877 0.01048,0.069442 0.01913,0.139196 0.03315,0.2080683 0.0039,0.019778 0.0082,0.039483 0.01175,0.059332 0.003,0.017185 0.0052,0.034511 0.008,0.051745 0.01045,0.065257 0.02151,0.1306875 0.0396,0.1943333 0.0071,0.02734 0.01421,0.056139 0.02252,0.083158 0.0122,0.039681 0.01172,0.034799 0.02606,0.071716 0.01413,0.036317 0.0043,0.014478 0.01807,0.043394 5.29e-4,0.0022 0.03143,-0.00427 0.03098,-0.00646 z" />
        <path
           style="fill:#050000;fill-opacity:1;stroke:#000000;stroke-width:0.13;stroke-linecap:butt;stroke-linejoin:round;stroke-miterlimit:4;stroke-dasharray:none;stroke-opacity:1"
           d="m 81.220073,6.447133 c 1.355413,-0.041222 1.35175,-1.2041254 1.371002,-1.3929363 0.07097,-0.6960389 -0.506761,-1.9014418 -0.279323,-2.1288809 -0.599806,0.1739387 -1.741966,0.2518482 -2.109015,1.6216927 -0.367048,1.3698444 0.225536,1.8512411 0.615553,1.8874739 0.390015,0.036233 0.401783,0.01265 0.401783,0.012651 z"
           id="path36350"
           sodipodi:nodetypes="cscssc" />
      </g>
    </g>
    <path
       style="fill:#050000;fill-opacity:1;stroke:none;stroke-width:0.265;stroke-linecap:butt;stroke-linejoin:miter;stroke-miterlimit:4;stroke-dasharray:none;stroke-opacity:1"
       d="M -4.0000134e-8,4.5999997 83.999995,4.9999997 l 0.4,-0.4 -0.4,-0.4 z"
       id="path36408"
       sodipodi:nodetypes="ccccc" />
    <path
       style="fill:#050000;fill-opacity:1;stroke:none;stroke-width:0.265;stroke-linecap:butt;stroke-linejoin:miter;stroke-miterlimit:4;stroke-dasharray:none;stroke-opacity:1"
       d="m 169.99999,4.5999997 -83.999995,0.4 -0.4,-0.4 0.4,-0.4 z"
       id="path36663"
       sodipodi:nodetypes="ccccc" />
    <path
       id="path36687"
       style="fill:#050000;fill-opacity:1;stroke:none;stroke-width:1.00157;stroke-linecap:butt;stroke-linejoin:round;stroke-miterlimit:4;stroke-dasharray:none"
       d="M 321.25977 15.117188 A 2.2677164 2.2677164 0 0 0 318.99219 17.386719 A 2.2677164 2.2677164 0 0 0 321.25977 19.654297 A 2.2677164 2.2677164 0 0 0 323.52734 17.386719 A 2.2677164 2.2677164 0 0 0 321.25977 15.117188 z M 320.88281 15.496094 A 1.5118109 1.5118109 0 0 1 322.39453 17.007812 A 1.5118109 1.5118109 0 0 1 320.88281 18.519531 A 1.5118109 1.5118109 0 0 1 319.36914 17.007812 A 1.5118109 1.5118109 0 0 1 320.88281 15.496094 z "
       transform="scale(0.26458333)" />
    <g
       id="g37147"
       transform="matrix(-0.85830839,0.51313421,0.51313421,0.85830839,149.80362,-43.610427)">
      <g
         id="g37145">
        <path
           style="fill:#0c0000;stroke-width:0.165;stroke-linecap:round;stroke-linejoin:round;stroke-miterlimit:4;stroke-dasharray:none"
           id="path37137"
           d="m 81.198999,7.2777921 c -0.0032,-0.069053 -0.01934,-0.1365997 -0.03265,-0.2041949 -0.0091,-0.063813 -0.01746,-0.1277289 -0.02572,-0.1916581 -0.0021,-0.017206 -0.0049,-0.034356 -0.0067,-0.051612 -0.0021,-0.019942 -0.0033,-0.039963 -0.0049,-0.059945 -0.01365,-0.1501923 -0.02921,-0.3001946 -0.04464,-0.4502152 -0.01021,-0.086129 -0.0114,-0.172928 -0.01587,-0.2594579 -0.0016,-0.029807 -0.0039,-0.059578 -0.0049,-0.089408 -7.94e-4,-0.022429 -0.0021,-0.1698379 -0.0024,-0.1913149 -1.03e-4,-0.078801 -5.29e-4,-0.1092549 5.3e-4,-0.1874909 2.64e-4,-0.029394 2.19e-4,-0.058814 0.0016,-0.088174 0.0016,-0.030489 0.0046,-0.060883 0.0072,-0.091293 0.008,-0.09118 0.009,-0.094025 0.01984,-0.184884 0.02223,-0.1311246 0.04518,-0.2621719 0.07688,-0.3913976 0.01786,-0.072824 0.02838,-0.1082593 0.04848,-0.1801728 0.03294,-0.094567 0.05877,-0.1914498 0.09018,-0.2864977 0.01093,-0.033093 0.0232,-0.065727 0.03466,-0.098647 0.0292,-0.083996 0.03669,-0.1068509 0.06469,-0.1899541 0.02775,-0.075396 0.04744,-0.1540894 0.08012,-0.2276923 0.02945,-0.066316 0.06927,-0.126973 0.108493,-0.1876962 0.05159,-0.073104 0.112926,-0.1384958 0.174286,-0.2033373 0.0024,-0.00298 -0.03965,-0.037758 -0.04211,-0.034781 v 0 c -0.07338,0.060277 -0.145632,0.1223275 -0.202843,0.198923 -0.01476,0.020214 -0.03014,0.039987 -0.04427,0.060643 -0.07647,0.1117761 -0.138017,0.2340247 -0.190214,0.3587197 -0.03079,0.078577 -0.04418,0.1100362 -0.07144,0.190986 -0.04345,0.1290288 -0.08013,0.2603164 -0.116814,0.3913746 -0.01929,0.063751 -0.0366,0.1192257 -0.05391,0.18366 -0.0356,0.1325377 -0.06204,0.2674945 -0.07458,0.4042703 -0.0037,0.031716 -0.0078,0.063376 -0.01093,0.095149 -0.0093,0.095047 -0.0072,0.094401 -0.01172,0.1891678 -0.0045,0.09363 -0.01058,0.1872623 -0.0087,0.2810767 0.0044,0.1563423 1.93e-4,0.040311 0.0083,0.1942679 0.0016,0.030033 0.0026,0.060096 0.0043,0.090121 0.0051,0.088148 0.01381,0.1759368 0.02217,0.263816 0.0086,0.074016 0.0099,0.0911 0.02082,0.1644875 0.0038,0.026001 0.0085,0.051885 0.01238,0.077877 0.01048,0.069442 0.01913,0.139196 0.03315,0.2080683 0.0039,0.019778 0.0082,0.039483 0.01175,0.059332 0.003,0.017185 0.0052,0.034511 0.008,0.051745 0.01045,0.065257 0.02151,0.1306875 0.0396,0.1943333 0.0071,0.02734 0.01421,0.056139 0.02252,0.083158 0.0122,0.039681 0.01172,0.034799 0.02606,0.071716 0.01413,0.036317 0.0043,0.014478 0.01807,0.043394 5.29e-4,0.0022 0.03143,-0.00427 0.03098,-0.00646 z" />
        <path
           style="fill:none;fill-opacity:1;stroke:#000000;stroke-width:0.13;stroke-linecap:butt;stroke-linejoin:round;stroke-miterlimit:4;stroke-dasharray:none;stroke-opacity:1"
           d="m 81.220073,6.447133 c 1.355413,-0.041222 1.35175,-1.2041254 1.371002,-1.3929363 0.07097,-0.6960389 -0.506761,-1.9014418 -0.279323,-2.1288809 -0.599806,0.1739387 -1.741966,0.2518482 -2.109015,1.6216927 -0.367048,1.3698444 0.225536,1.8512411 0.615553,1.8874739 0.390015,0.036233 0.401783,0.01265 0.401783,0.012651 z"
           id="path37139"
           sodipodi:nodetypes="cscssc" />
        <path
           style="fill:#0c0000;stroke-width:0.165;stroke-linecap:round;stroke-linejoin:round;stroke-miterlimit:4;stroke-dasharray:none"
           id="path37141"
           d="m 81.198999,7.2777921 c -0.0032,-0.069053 -0.01934,-0.1365997 -0.03265,-0.2041949 -0.0091,-0.063813 -0.01746,-0.1277289 -0.02572,-0.1916581 -0.0021,-0.017206 -0.0049,-0.034356 -0.0067,-0.051612 -0.0021,-0.019942 -0.0033,-0.039963 -0.0049,-0.059945 -0.01365,-0.1501923 -0.02921,-0.3001946 -0.04464,-0.4502152 -0.01021,-0.086129 -0.0114,-0.172928 -0.01587,-0.2594579 -0.0016,-0.029807 -0.0039,-0.059578 -0.0049,-0.089408 -7.94e-4,-0.022429 -0.0021,-0.1698379 -0.0024,-0.1913149 -1.03e-4,-0.078801 -5.29e-4,-0.1092549 5.3e-4,-0.1874909 2.64e-4,-0.029394 2.19e-4,-0.058814 0.0016,-0.088174 0.0016,-0.030489 0.0046,-0.060883 0.0072,-0.091293 0.008,-0.09118 0.009,-0.094025 0.01984,-0.184884 0.02223,-0.1311246 0.04518,-0.2621719 0.07688,-0.3913976 0.01786,-0.072824 0.02838,-0.1082593 0.04848,-0.1801728 0.03294,-0.094567 0.05877,-0.1914498 0.09018,-0.2864977 0.01093,-0.033093 0.0232,-0.065727 0.03466,-0.098647 0.0292,-0.083996 0.03669,-0.1068509 0.06469,-0.1899541 0.02775,-0.075396 0.04744,-0.1540894 0.08012,-0.2276923 0.02945,-0.066316 0.06927,-0.126973 0.108493,-0.1876962 0.05159,-0.073104 0.112926,-0.1384958 0.174286,-0.2033373 0.0024,-0.00298 -0.03965,-0.037758 -0.04211,-0.034781 v 0 c -0.07338,0.060277 -0.145632,0.1223275 -0.202843,0.198923 -0.01476,0.020214 -0.03014,0.039987 -0.04427,0.060643 -0.07647,0.1117761 -0.138017,0.2340247 -0.190214,0.3587197 -0.03079,0.078577 -0.04418,0.1100362 -0.07144,0.190986 -0.04345,0.1290288 -0.08013,0.2603164 -0.116814,0.3913746 -0.01929,0.063751 -0.0366,0.1192257 -0.05391,0.18366 -0.0356,0.1325377 -0.06204,0.2674945 -0.07458,0.4042703 -0.0037,0.031716 -0.0078,0.063376 -0.01093,0.095149 -0.0093,0.095047 -0.0072,0.094401 -0.01172,0.1891678 -0.0045,0.09363 -0.01058,0.1872623 -0.0087,0.2810767 0.0044,0.1563423 1.93e-4,0.040311 0.0083,0.1942679 0.0016,0.030033 0.0026,0.060096 0.0043,0.090121 0.0051,0.088148 0.01381,0.1759368 0.02217,0.263816 0.0086,0.074016 0.0099,0.0911 0.02082,0.1644875 0.0038,0.026001 0.0085,0.051885 0.01238,0.077877 0.01048,0.069442 0.01913,0.139196 0.03315,0.2080683 0.0039,0.019778 0.0082,0.039483 0.01175,0.059332 0.003,0.017185 0.0052,0.034511 0.008,0.051745 0.01045,0.065257 0.02151,0.1306875 0.0396,0.1943333 0.0071,0.02734 0.01421,0.056139 0.02252,0.083158 0.0122,0.039681 0.01172,0.034799 0.02606,0.071716 0.01413,0.036317 0.0043,0.014478 0.01807,0.043394 5.29e-4,0.0022 0.03143,-0.00427 0.03098,-0.00646 z" />
        <path
           style="fill:#050000;fill-opacity:1;stroke:#000000;stroke-width:0.13;stroke-linecap:butt;stroke-linejoin:round;stroke-miterlimit:4;stroke-dasharray:none;stroke-opacity:1"
           d="m 81.220073,6.447133 c 1.355413,-0.041222 1.35175,-1.2041254 1.371002,-1.3929363 0.07097,-0.6960389 -0.506761,-1.9014418 -0.279323,-2.1288809 -0.599806,0.1739387 -1.741966,0.2518482 -2.109015,1.6216927 -0.367048,1.3698444 0.225536,1.8512411 0.615553,1.8874739 0.390015,0.036233 0.401783,0.01265 0.401783,0.012651 z"
           id="path37143"
           sodipodi:nodetypes="cscssc" />
      </g>
    </g>
    <g
       id="g37159"
       transform="matrix(-0.09403761,1.0775494,1.0775494,0.09403761,83.557996,-84.03488)">
      <g
         id="g37157">
        <path
           style="fill:#0c0000;stroke-width:0.165;stroke-linecap:round;stroke-linejoin:round;stroke-miterlimit:4;stroke-dasharray:none"
           id="path37149"
           d="m 81.198999,7.2777921 c -0.0032,-0.069053 -0.01934,-0.1365997 -0.03265,-0.2041949 -0.0091,-0.063813 -0.01746,-0.1277289 -0.02572,-0.1916581 -0.0021,-0.017206 -0.0049,-0.034356 -0.0067,-0.051612 -0.0021,-0.019942 -0.0033,-0.039963 -0.0049,-0.059945 -0.01365,-0.1501923 -0.02921,-0.3001946 -0.04464,-0.4502152 -0.01021,-0.086129 -0.0114,-0.172928 -0.01587,-0.2594579 -0.0016,-0.029807 -0.0039,-0.059578 -0.0049,-0.089408 -7.94e-4,-0.022429 -0.0021,-0.1698379 -0.0024,-0.1913149 -1.03e-4,-0.078801 -5.29e-4,-0.1092549 5.3e-4,-0.1874909 2.64e-4,-0.029394 2.19e-4,-0.058814 0.0016,-0.088174 0.0016,-0.030489 0.0046,-0.060883 0.0072,-0.091293 0.008,-0.09118 0.009,-0.094025 0.01984,-0.184884 0.02223,-0.1311246 0.04518,-0.2621719 0.07688,-0.3913976 0.01786,-0.072824 0.02838,-0.1082593 0.04848,-0.1801728 0.03294,-0.094567 0.05877,-0.1914498 0.09018,-0.2864977 0.01093,-0.033093 0.0232,-0.065727 0.03466,-0.098647 0.0292,-0.083996 0.03669,-0.1068509 0.06469,-0.1899541 0.02775,-0.075396 0.04744,-0.1540894 0.08012,-0.2276923 0.02945,-0.066316 0.06927,-0.126973 0.108493,-0.1876962 0.05159,-0.073104 0.112926,-0.1384958 0.174286,-0.2033373 0.0024,-0.00298 -0.03965,-0.037758 -0.04211,-0.034781 v 0 c -0.07338,0.060277 -0.145632,0.1223275 -0.202843,0.198923 -0.01476,0.020214 -0.03014,0.039987 -0.04427,0.060643 -0.07647,0.1117761 -0.138017,0.2340247 -0.190214,0.3587197 -0.03079,0.078577 -0.04418,0.1100362 -0.07144,0.190986 -0.04345,0.1290288 -0.08013,0.2603164 -0.116814,0.3913746 -0.01929,0.063751 -0.0366,0.1192257 -0.05391,0.18366 -0.0356,0.1325377 -0.06204,0.2674945 -0.07458,0.4042703 -0.0037,0.031716 -0.0078,0.063376 -0.01093,0.095149 -0.0093,0.095047 -0.0072,0.094401 -0.01172,0.1891678 -0.0045,0.09363 -0.01058,0.1872623 -0.0087,0.2810767 0.0044,0.1563423 1.93e-4,0.040311 0.0083,0.1942679 0.0016,0.030033 0.0026,0.060096 0.0043,0.090121 0.0051,0.088148 0.01381,0.1759368 0.02217,0.263816 0.0086,0.074016 0.0099,0.0911 0.02082,0.1644875 0.0038,0.026001 0.0085,0.051885 0.01238,0.077877 0.01048,0.069442 0.01913,0.139196 0.03315,0.2080683 0.0039,0.019778 0.0082,0.039483 0.01175,0.059332 0.003,0.017185 0.0052,0.034511 0.008,0.051745 0.01045,0.065257 0.02151,0.1306875 0.0396,0.1943333 0.0071,0.02734 0.01421,0.056139 0.02252,0.083158 0.0122,0.039681 0.01172,0.034799 0.02606,0.071716 0.01413,0.036317 0.0043,0.014478 0.01807,0.043394 5.29e-4,0.0022 0.03143,-0.00427 0.03098,-0.00646 z" />
        <path
           style="fill:none;fill-opacity:1;stroke:#000000;stroke-width:0.13;stroke-linecap:butt;stroke-linejoin:round;stroke-miterlimit:4;stroke-dasharray:none;stroke-opacity:1"
           d="m 81.220073,6.447133 c 1.355413,-0.041222 1.35175,-1.2041254 1.371002,-1.3929363 0.07097,-0.6960389 -0.506761,-1.9014418 -0.279323,-2.1288809 -0.599806,0.1739387 -1.741966,0.2518482 -2.109015,1.6216927 -0.367048,1.3698444 0.225536,1.8512411 0.615553,1.8874739 0.390015,0.036233 0.401783,0.01265 0.401783,0.012651 z"
           id="path37151"
           sodipodi:nodetypes="cscssc" />
        <path
           style="fill:#0c0000;stroke-width:0.165;stroke-linecap:round;stroke-linejoin:round;stroke-miterlimit:4;stroke-dasharray:none"
           id="path37153"
           d="m 81.198999,7.2777921 c -0.0032,-0.069053 -0.01934,-0.1365997 -0.03265,-0.2041949 -0.0091,-0.063813 -0.01746,-0.1277289 -0.02572,-0.1916581 -0.0021,-0.017206 -0.0049,-0.034356 -0.0067,-0.051612 -0.0021,-0.019942 -0.0033,-0.039963 -0.0049,-0.059945 -0.01365,-0.1501923 -0.02921,-0.3001946 -0.04464,-0.4502152 -0.01021,-0.086129 -0.0114,-0.172928 -0.01587,-0.2594579 -0.0016,-0.029807 -0.0039,-0.059578 -0.0049,-0.089408 -7.94e-4,-0.022429 -0.0021,-0.1698379 -0.0024,-0.1913149 -1.03e-4,-0.078801 -5.29e-4,-0.1092549 5.3e-4,-0.1874909 2.64e-4,-0.029394 2.19e-4,-0.058814 0.0016,-0.088174 0.0016,-0.030489 0.0046,-0.060883 0.0072,-0.091293 0.008,-0.09118 0.009,-0.094025 0.01984,-0.184884 0.02223,-0.1311246 0.04518,-0.2621719 0.07688,-0.3913976 0.01786,-0.072824 0.02838,-0.1082593 0.04848,-0.1801728 0.03294,-0.094567 0.05877,-0.1914498 0.09018,-0.2864977 0.01093,-0.033093 0.0232,-0.065727 0.03466,-0.098647 0.0292,-0.083996 0.03669,-0.1068509 0.06469,-0.1899541 0.02775,-0.075396 0.04744,-0.1540894 0.08012,-0.2276923 0.02945,-0.066316 0.06927,-0.126973 0.108493,-0.1876962 0.05159,-0.073104 0.112926,-0.1384958 0.174286,-0.2033373 0.0024,-0.00298 -0.03965,-0.037758 -0.04211,-0.034781 v 0 c -0.07338,0.060277 -0.145632,0.1223275 -0.202843,0.198923 -0.01476,0.020214 -0.03014,0.039987 -0.04427,0.060643 -0.07647,0.1117761 -0.138017,0.2340247 -0.190214,0.3587197 -0.03079,0.078577 -0.04418,0.1100362 -0.07144,0.190986 -0.04345,0.1290288 -0.08013,0.2603164 -0.116814,0.3913746 -0.01929,0.063751 -0.0366,0.1192257 -0.05391,0.18366 -0.0356,0.1325377 -0.06204,0.2674945 -0.07458,0.4042703 -0.0037,0.031716 -0.0078,0.063376 -0.01093,0.095149 -0.0093,0.095047 -0.0072,0.094401 -0.01172,0.1891678 -0.0045,0.09363 -0.01058,0.1872623 -0.0087,0.2810767 0.0044,0.1563423 1.93e-4,0.040311 0.0083,0.1942679 0.0016,0.030033 0.0026,0.060096 0.0043,0.090121 0.0051,0.088148 0.01381,0.1759368 0.02217,0.263816 0.0086,0.074016 0.0099,0.0911 0.02082,0.1644875 0.0038,0.026001 0.0085,0.051885 0.01238,0.077877 0.01048,0.069442 0.01913,0.139196 0.03315,0.2080683 0.0039,0.019778 0.0082,0.039483 0.01175,0.059332 0.003,0.017185 0.0052,0.034511 0.008,0.051745 0.01045,0.065257 0.02151,0.1306875 0.0396,0.1943333 0.0071,0.02734 0.01421,0.056139 0.02252,0.083158 0.0122,0.039681 0.01172,0.034799 0.02606,0.071716 0.01413,0.036317 0.0043,0.014478 0.01807,0.043394 5.29e-4,0.0022 0.03143,-0.00427 0.03098,-0.00646 z" />
        <path
           style="fill:#050000;fill-opacity:1;stroke:#000000;stroke-width:0.13;stroke-linecap:butt;stroke-linejoin:round;stroke-miterlimit:4;stroke-dasharray:none;stroke-opacity:1"
           d="m 81.220073,6.447133 c 1.355413,-0.041222 1.35175,-1.2041254 1.371002,-1.3929363 0.07097,-0.6960389 -0.506761,-1.9014418 -0.279323,-2.1288809 -0.599806,0.1739387 -1.741966,0.2518482 -2.109015,1.6216927 -0.367048,1.3698444 0.225536,1.8512411 0.615553,1.8874739 0.390015,0.036233 0.401783,0.01265 0.401783,0.012651 z"
           id="path37155"
           sodipodi:nodetypes="cscssc" />
      </g>
    </g>
    <g
       id="g37172"
       transform="matrix(-0.36129749,0.66538566,-0.66538566,-0.36129749,120.2467,-46.756291)">
      <g
         id="g37170">
        <path
           style="fill:#0c0000;stroke-width:0.165;stroke-linecap:round;stroke-linejoin:round;stroke-miterlimit:4;stroke-dasharray:none"
           id="path37162"
           d="m 81.198999,7.2777921 c -0.0032,-0.069053 -0.01934,-0.1365997 -0.03265,-0.2041949 -0.0091,-0.063813 -0.01746,-0.1277289 -0.02572,-0.1916581 -0.0021,-0.017206 -0.0049,-0.034356 -0.0067,-0.051612 -0.0021,-0.019942 -0.0033,-0.039963 -0.0049,-0.059945 -0.01365,-0.1501923 -0.02921,-0.3001946 -0.04464,-0.4502152 -0.01021,-0.086129 -0.0114,-0.172928 -0.01587,-0.2594579 -0.0016,-0.029807 -0.0039,-0.059578 -0.0049,-0.089408 -7.94e-4,-0.022429 -0.0021,-0.1698379 -0.0024,-0.1913149 -1.03e-4,-0.078801 -5.29e-4,-0.1092549 5.3e-4,-0.1874909 2.64e-4,-0.029394 2.19e-4,-0.058814 0.0016,-0.088174 0.0016,-0.030489 0.0046,-0.060883 0.0072,-0.091293 0.008,-0.09118 0.009,-0.094025 0.01984,-0.184884 0.02223,-0.1311246 0.04518,-0.2621719 0.07688,-0.3913976 0.01786,-0.072824 0.02838,-0.1082593 0.04848,-0.1801728 0.03294,-0.094567 0.05877,-0.1914498 0.09018,-0.2864977 0.01093,-0.033093 0.0232,-0.065727 0.03466,-0.098647 0.0292,-0.083996 0.03669,-0.1068509 0.06469,-0.1899541 0.02775,-0.075396 0.04744,-0.1540894 0.08012,-0.2276923 0.02945,-0.066316 0.06927,-0.126973 0.108493,-0.1876962 0.05159,-0.073104 0.112926,-0.1384958 0.174286,-0.2033373 0.0024,-0.00298 -0.03965,-0.037758 -0.04211,-0.034781 v 0 c -0.07338,0.060277 -0.145632,0.1223275 -0.202843,0.198923 -0.01476,0.020214 -0.03014,0.039987 -0.04427,0.060643 -0.07647,0.1117761 -0.138017,0.2340247 -0.190214,0.3587197 -0.03079,0.078577 -0.04418,0.1100362 -0.07144,0.190986 -0.04345,0.1290288 -0.08013,0.2603164 -0.116814,0.3913746 -0.01929,0.063751 -0.0366,0.1192257 -0.05391,0.18366 -0.0356,0.1325377 -0.06204,0.2674945 -0.07458,0.4042703 -0.0037,0.031716 -0.0078,0.063376 -0.01093,0.095149 -0.0093,0.095047 -0.0072,0.094401 -0.01172,0.1891678 -0.0045,0.09363 -0.01058,0.1872623 -0.0087,0.2810767 0.0044,0.1563423 1.93e-4,0.040311 0.0083,0.1942679 0.0016,0.030033 0.0026,0.060096 0.0043,0.090121 0.0051,0.088148 0.01381,0.1759368 0.02217,0.263816 0.0086,0.074016 0.0099,0.0911 0.02082,0.1644875 0.0038,0.026001 0.0085,0.051885 0.01238,0.077877 0.01048,0.069442 0.01913,0.139196 0.03315,0.2080683 0.0039,0.019778 0.0082,0.039483 0.01175,0.059332 0.003,0.017185 0.0052,0.034511 0.008,0.051745 0.01045,0.065257 0.02151,0.1306875 0.0396,0.1943333 0.0071,0.02734 0.01421,0.056139 0.02252,0.083158 0.0122,0.039681 0.01172,0.034799 0.02606,0.071716 0.01413,0.036317 0.0043,0.014478 0.01807,0.043394 5.29e-4,0.0022 0.03143,-0.00427 0.03098,-0.00646 z" />
        <path
           style="fill:none;fill-opacity:1;stroke:#000000;stroke-width:0.13;stroke-linecap:butt;stroke-linejoin:round;stroke-miterlimit:4;stroke-dasharray:none;stroke-opacity:1"
           d="m 81.220073,6.447133 c 1.355413,-0.041222 1.35175,-1.2041254 1.371002,-1.3929363 0.07097,-0.6960389 -0.506761,-1.9014418 -0.279323,-2.1288809 -0.599806,0.1739387 -1.741966,0.2518482 -2.109015,1.6216927 -0.367048,1.3698444 0.225536,1.8512411 0.615553,1.8874739 0.390015,0.036233 0.401783,0.01265 0.401783,0.012651 z"
           id="path37164"
           sodipodi:nodetypes="cscssc" />
        <path
           style="fill:#0c0000;stroke-width:0.165;stroke-linecap:round;stroke-linejoin:round;stroke-miterlimit:4;stroke-dasharray:none"
           id="path37166"
           d="m 81.198999,7.2777921 c -0.0032,-0.069053 -0.01934,-0.1365997 -0.03265,-0.2041949 -0.0091,-0.063813 -0.01746,-0.1277289 -0.02572,-0.1916581 -0.0021,-0.017206 -0.0049,-0.034356 -0.0067,-0.051612 -0.0021,-0.019942 -0.0033,-0.039963 -0.0049,-0.059945 -0.01365,-0.1501923 -0.02921,-0.3001946 -0.04464,-0.4502152 -0.01021,-0.086129 -0.0114,-0.172928 -0.01587,-0.2594579 -0.0016,-0.029807 -0.0039,-0.059578 -0.0049,-0.089408 -7.94e-4,-0.022429 -0.0021,-0.1698379 -0.0024,-0.1913149 -1.03e-4,-0.078801 -5.29e-4,-0.1092549 5.3e-4,-0.1874909 2.64e-4,-0.029394 2.19e-4,-0.058814 0.0016,-0.088174 0.0016,-0.030489 0.0046,-0.060883 0.0072,-0.091293 0.008,-0.09118 0.009,-0.094025 0.01984,-0.184884 0.02223,-0.1311246 0.04518,-0.2621719 0.07688,-0.3913976 0.01786,-0.072824 0.02838,-0.1082593 0.04848,-0.1801728 0.03294,-0.094567 0.05877,-0.1914498 0.09018,-0.2864977 0.01093,-0.033093 0.0232,-0.065727 0.03466,-0.098647 0.0292,-0.083996 0.03669,-0.1068509 0.06469,-0.1899541 0.02775,-0.075396 0.04744,-0.1540894 0.08012,-0.2276923 0.02945,-0.066316 0.06927,-0.126973 0.108493,-0.1876962 0.05159,-0.073104 0.112926,-0.1384958 0.174286,-0.2033373 0.0024,-0.00298 -0.03965,-0.037758 -0.04211,-0.034781 v 0 c -0.07338,0.060277 -0.145632,0.1223275 -0.202843,0.198923 -0.01476,0.020214 -0.03014,0.039987 -0.04427,0.060643 -0.07647,0.1117761 -0.138017,0.2340247 -0.190214,0.3587197 -0.03079,0.078577 -0.04418,0.1100362 -0.07144,0.190986 -0.04345,0.1290288 -0.08013,0.2603164 -0.116814,0.3913746 -0.01929,0.063751 -0.0366,0.1192257 -0.05391,0.18366 -0.0356,0.1325377 -0.06204,0.2674945 -0.07458,0.4042703 -0.0037,0.031716 -0.0078,0.063376 -0.01093,0.095149 -0.0093,0.095047 -0.0072,0.094401 -0.01172,0.1891678 -0.0045,0.09363 -0.01058,0.1872623 -0.0087,0.2810767 0.0044,0.1563423 1.93e-4,0.040311 0.0083,0.1942679 0.0016,0.030033 0.0026,0.060096 0.0043,0.090121 0.0051,0.088148 0.01381,0.1759368 0.02217,0.263816 0.0086,0.074016 0.0099,0.0911 0.02082,0.1644875 0.0038,0.026001 0.0085,0.051885 0.01238,0.077877 0.01048,0.069442 0.01913,0.139196 0.03315,0.2080683 0.0039,0.019778 0.0082,0.039483 0.01175,0.059332 0.003,0.017185 0.0052,0.034511 0.008,0.051745 0.01045,0.065257 0.02151,0.1306875 0.0396,0.1943333 0.0071,0.02734 0.01421,0.056139 0.02252,0.083158 0.0122,0.039681 0.01172,0.034799 0.02606,0.071716 0.01413,0.036317 0.0043,0.014478 0.01807,0.043394 5.29e-4,0.0022 0.03143,-0.00427 0.03098,-0.00646 z" />
        <path
           style="fill:#050000;fill-opacity:1;stroke:#000000;stroke-width:0.13;stroke-linecap:butt;stroke-linejoin:round;stroke-miterlimit:4;stroke-dasharray:none;stroke-opacity:1"
           d="m 81.220073,6.447133 c 1.355413,-0.041222 1.35175,-1.2041254 1.371002,-1.3929363 0.07097,-0.6960389 -0.506761,-1.9014418 -0.279323,-2.1288809 -0.599806,0.1739387 -1.741966,0.2518482 -2.109015,1.6216927 -0.367048,1.3698444 0.225536,1.8512411 0.615553,1.8874739 0.390015,0.036233 0.401783,0.01265 0.401783,0.012651 z"
           id="path37168"
           sodipodi:nodetypes="cscssc" />
      </g>
    </g>
    <g
       id="g37184"
       transform="matrix(0.4538298,0.62382399,0.83579834,-0.33872994,40.951402,-43.283193)">
      <g
         id="g37182">
        <path
           style="fill:#0c0000;stroke-width:0.165;stroke-linecap:round;stroke-linejoin:round;stroke-miterlimit:4;stroke-dasharray:none"
           id="path37174"
           d="m 81.198999,7.2777921 c -0.0032,-0.069053 -0.01934,-0.1365997 -0.03265,-0.2041949 -0.0091,-0.063813 -0.01746,-0.1277289 -0.02572,-0.1916581 -0.0021,-0.017206 -0.0049,-0.034356 -0.0067,-0.051612 -0.0021,-0.019942 -0.0033,-0.039963 -0.0049,-0.059945 -0.01365,-0.1501923 -0.02921,-0.3001946 -0.04464,-0.4502152 -0.01021,-0.086129 -0.0114,-0.172928 -0.01587,-0.2594579 -0.0016,-0.029807 -0.0039,-0.059578 -0.0049,-0.089408 -7.94e-4,-0.022429 -0.0021,-0.1698379 -0.0024,-0.1913149 -1.03e-4,-0.078801 -5.29e-4,-0.1092549 5.3e-4,-0.1874909 2.64e-4,-0.029394 2.19e-4,-0.058814 0.0016,-0.088174 0.0016,-0.030489 0.0046,-0.060883 0.0072,-0.091293 0.008,-0.09118 0.009,-0.094025 0.01984,-0.184884 0.02223,-0.1311246 0.04518,-0.2621719 0.07688,-0.3913976 0.01786,-0.072824 0.02838,-0.1082593 0.04848,-0.1801728 0.03294,-0.094567 0.05877,-0.1914498 0.09018,-0.2864977 0.01093,-0.033093 0.0232,-0.065727 0.03466,-0.098647 0.0292,-0.083996 0.03669,-0.1068509 0.06469,-0.1899541 0.02775,-0.075396 0.04744,-0.1540894 0.08012,-0.2276923 0.02945,-0.066316 0.06927,-0.126973 0.108493,-0.1876962 0.05159,-0.073104 0.112926,-0.1384958 0.174286,-0.2033373 0.0024,-0.00298 -0.03965,-0.037758 -0.04211,-0.034781 v 0 c -0.07338,0.060277 -0.145632,0.1223275 -0.202843,0.198923 -0.01476,0.020214 -0.03014,0.039987 -0.04427,0.060643 -0.07647,0.1117761 -0.138017,0.2340247 -0.190214,0.3587197 -0.03079,0.078577 -0.04418,0.1100362 -0.07144,0.190986 -0.04345,0.1290288 -0.08013,0.2603164 -0.116814,0.3913746 -0.01929,0.063751 -0.0366,0.1192257 -0.05391,0.18366 -0.0356,0.1325377 -0.06204,0.2674945 -0.07458,0.4042703 -0.0037,0.031716 -0.0078,0.063376 -0.01093,0.095149 -0.0093,0.095047 -0.0072,0.094401 -0.01172,0.1891678 -0.0045,0.09363 -0.01058,0.1872623 -0.0087,0.2810767 0.0044,0.1563423 1.93e-4,0.040311 0.0083,0.1942679 0.0016,0.030033 0.0026,0.060096 0.0043,0.090121 0.0051,0.088148 0.01381,0.1759368 0.02217,0.263816 0.0086,0.074016 0.0099,0.0911 0.02082,0.1644875 0.0038,0.026001 0.0085,0.051885 0.01238,0.077877 0.01048,0.069442 0.01913,0.139196 0.03315,0.2080683 0.0039,0.019778 0.0082,0.039483 0.01175,0.059332 0.003,0.017185 0.0052,0.034511 0.008,0.051745 0.01045,0.065257 0.02151,0.1306875 0.0396,0.1943333 0.0071,0.02734 0.01421,0.056139 0.02252,0.083158 0.0122,0.039681 0.01172,0.034799 0.02606,0.071716 0.01413,0.036317 0.0043,0.014478 0.01807,0.043394 5.29e-4,0.0022 0.03143,-0.00427 0.03098,-0.00646 z" />
        <path
           style="fill:none;fill-opacity:1;stroke:#000000;stroke-width:0.13;stroke-linecap:butt;stroke-linejoin:round;stroke-miterlimit:4;stroke-dasharray:none;stroke-opacity:1"
           d="m 81.220073,6.447133 c 1.355413,-0.041222 1.35175,-1.2041254 1.371002,-1.3929363 0.07097,-0.6960389 -0.506761,-1.9014418 -0.279323,-2.1288809 -0.599806,0.1739387 -1.741966,0.2518482 -2.109015,1.6216927 -0.367048,1.3698444 0.225536,1.8512411 0.615553,1.8874739 0.390015,0.036233 0.401783,0.01265 0.401783,0.012651 z"
           id="path37176"
           sodipodi:nodetypes="cscssc" />
        <path
           style="fill:#0c0000;stroke-width:0.165;stroke-linecap:round;stroke-linejoin:round;stroke-miterlimit:4;stroke-dasharray:none"
           id="path37178"
           d="m 81.198999,7.2777921 c -0.0032,-0.069053 -0.01934,-0.1365997 -0.03265,-0.2041949 -0.0091,-0.063813 -0.01746,-0.1277289 -0.02572,-0.1916581 -0.0021,-0.017206 -0.0049,-0.034356 -0.0067,-0.051612 -0.0021,-0.019942 -0.0033,-0.039963 -0.0049,-0.059945 -0.01365,-0.1501923 -0.02921,-0.3001946 -0.04464,-0.4502152 -0.01021,-0.086129 -0.0114,-0.172928 -0.01587,-0.2594579 -0.0016,-0.029807 -0.0039,-0.059578 -0.0049,-0.089408 -7.94e-4,-0.022429 -0.0021,-0.1698379 -0.0024,-0.1913149 -1.03e-4,-0.078801 -5.29e-4,-0.1092549 5.3e-4,-0.1874909 2.64e-4,-0.029394 2.19e-4,-0.058814 0.0016,-0.088174 0.0016,-0.030489 0.0046,-0.060883 0.0072,-0.091293 0.008,-0.09118 0.009,-0.094025 0.01984,-0.184884 0.02223,-0.1311246 0.04518,-0.2621719 0.07688,-0.3913976 0.01786,-0.072824 0.02838,-0.1082593 0.04848,-0.1801728 0.03294,-0.094567 0.05877,-0.1914498 0.09018,-0.2864977 0.01093,-0.033093 0.0232,-0.065727 0.03466,-0.098647 0.0292,-0.083996 0.03669,-0.1068509 0.06469,-0.1899541 0.02775,-0.075396 0.04744,-0.1540894 0.08012,-0.2276923 0.02945,-0.066316 0.06927,-0.126973 0.108493,-0.1876962 0.05159,-0.073104 0.112926,-0.1384958 0.174286,-0.2033373 0.0024,-0.00298 -0.03965,-0.037758 -0.04211,-0.034781 v 0 c -0.07338,0.060277 -0.145632,0.1223275 -0.202843,0.198923 -0.01476,0.020214 -0.03014,0.039987 -0.04427,0.060643 -0.07647,0.1117761 -0.138017,0.2340247 -0.190214,0.3587197 -0.03079,0.078577 -0.04418,0.1100362 -0.07144,0.190986 -0.04345,0.1290288 -0.08013,0.2603164 -0.116814,0.3913746 -0.01929,0.063751 -0.0366,0.1192257 -0.05391,0.18366 -0.0356,0.1325377 -0.06204,0.2674945 -0.07458,0.4042703 -0.0037,0.031716 -0.0078,0.063376 -0.01093,0.095149 -0.0093,0.095047 -0.0072,0.094401 -0.01172,0.1891678 -0.0045,0.09363 -0.01058,0.1872623 -0.0087,0.2810767 0.0044,0.1563423 1.93e-4,0.040311 0.0083,0.1942679 0.0016,0.030033 0.0026,0.060096 0.0043,0.090121 0.0051,0.088148 0.01381,0.1759368 0.02217,0.263816 0.0086,0.074016 0.0099,0.0911 0.02082,0.1644875 0.0038,0.026001 0.0085,0.051885 0.01238,0.077877 0.01048,0.069442 0.01913,0.139196 0.03315,0.2080683 0.0039,0.019778 0.0082,0.039483 0.01175,0.059332 0.003,0.017185 0.0052,0.034511 0.008,0.051745 0.01045,0.065257 0.02151,0.1306875 0.0396,0.1943333 0.0071,0.02734 0.01421,0.056139 0.02252,0.083158 0.0122,0.039681 0.01172,0.034799 0.02606,0.071716 0.01413,0.036317 0.0043,0.014478 0.01807,0.043394 5.29e-4,0.0022 0.03143,-0.00427 0.03098,-0.00646 z" />
        <path
           style="fill:#050000;fill-opacity:1;stroke:#000000;stroke-width:0.13;stroke-linecap:butt;stroke-linejoin:round;stroke-miterlimit:4;stroke-dasharray:none;stroke-opacity:1"
           d="m 81.220073,6.447133 c 1.355413,-0.041222 1.35175,-1.2041254 1.371002,-1.3929363 0.07097,-0.6960389 -0.506761,-1.9014418 -0.279323,-2.1288809 -0.599806,0.1739387 -1.741966,0.2518482 -2.109015,1.6216927 -0.367048,1.3698444 0.225536,1.8512411 0.615553,1.8874739 0.390015,0.036233 0.401783,0.01265 0.401783,0.012651 z"
           id="path37180"
           sodipodi:nodetypes="cscssc" />
      </g>
    </g>
  </g>
</svg>
