<?xml version="1.0" encoding="UTF-8" standalone="no"?>
<!-- Created with Inkscape (http://www.inkscape.org/) -->

<svg
   width="17cm"
   height="1cm"
   viewBox="0 0 170 9.9999995"
   version="1.1"
   id="svg31780"
   inkscape:version="1.1.2 (0a00cf5339, 2022-02-04)"
   sodipodi:docname="leaf_separator_large.svg"
   xmlns:inkscape="http://www.inkscape.org/namespaces/inkscape"
   xmlns:sodipodi="http://sodipodi.sourceforge.net/DTD/sodipodi-0.dtd"
   xmlns="http://www.w3.org/2000/svg"
   xmlns:svg="http://www.w3.org/2000/svg">
  <sodipodi:namedview
     id="namedview31782"
     pagecolor="#ffffff"
     bordercolor="#666666"
     borderopacity="1.0"
     inkscape:pageshadow="2"
     inkscape:pageopacity="0.0"
     inkscape:pagecheckerboard="0"
     inkscape:document-units="mm"
     showgrid="true"
     units="cm"
     inkscape:zoom="3.6878871"
     inkscape:cx="325.11842"
     inkscape:cy="-21.828217"
     inkscape:window-width="1920"
     inkscape:window-height="962"
     inkscape:window-x="0"
     inkscape:window-y="0"
     inkscape:window-maximized="1"
     inkscape:current-layer="layer1"
     objecttolerance="1">
    <inkscape:grid
       type="xygrid"
       id="grid31784"
       units="mm"
       spacingx="0.099999994"
       spacingy="0.099999994"
       empspacing="4"
       enabled="false"
       visible="true" />
  </sodipodi:namedview>
  <defs
     id="defs31777" />
  <g
     inkscape:label="Layer 1"
     inkscape:groupmode="layer"
     id="layer1"
     style="display:inline">
    <path
       id="path36344"
       style="fill:#0c0000;stroke-width:0.242593;stroke-linecap:round;stroke-linejoin:round;stroke-miterlimit:4;stroke-dasharray:none"
       d="m 94.258631,0.31618254 c -0.286524,-0.0127058 -0.601327,0.0178195 -0.948972,0.1048426 -2.022668,0.50631766 -2.218546,1.61160606 -1.986646,2.13874656 0.01952,0.044326 0.03601,0.07994 0.05286,0.1171013 A 1.631139,1.631139 0 0 0 91.0762,2.603223 C 91.075,2.596393 91.0745,2.58961 91.0733,2.582743 90.780808,0.79077722 88.877441,0.46115054 87.909476,0.1212589 c 0.256814,0.25885925 -0.45467,1.16638 -0.800136,1.9739665 -0.009,0.021146 -0.01758,0.04206 -0.02608,0.063055 -0.151326,-0.6294115 -0.524924,-1.36669897 -0.366415,-1.5526583 -0.557051,0.210801 -1.637048,0.37157987 -1.882218,1.701681 -0.245176,1.3301006 0.354437,1.7430392 0.727967,1.7479387 0.06706,8.892e-4 0.118849,2.21e-5 0.164492,-6.162e-4 l -2.5e-5,7.023e-4 c 0.0028,0.012299 0.0057,0.025975 0.0097,0.043211 0.0055,0.024431 0.01148,0.048572 0.01715,0.072989 0.01522,0.065224 0.02878,0.1312139 0.04734,0.1956287 0.0052,0.018508 0.01083,0.036767 0.01565,0.055364 0.0042,0.016112 0.0078,0.032731 0.01166,0.048901 0.01487,0.061246 0.03073,0.1226222 0.05273,0.1817591 0.0087,0.02545 0.0176,0.051806 0.02755,0.076863 0.01459,0.036799 0.01361,0.032399 0.03002,0.066406 0.01387,0.028694 0.01015,0.021985 0.01776,0.035056 a 1.631139,1.631139 0 0 0 -0.04876,0.2920999 1.631139,1.631139 0 0 0 1.163318,1.6182524 c -0.267517,0.7570165 0.09483,1.4286793 0.235928,1.8707391 0.04894,-0.2488789 0.920031,-0.4169958 1.510416,-0.7087972 a 1.0874261,1.0874261 0 0 0 0.256225,0.049652 1.0874261,1.0874261 0 0 0 1.124396,-1.0490124 1.0874261,1.0874261 0 0 0 -0.02083,-0.1694067 c 6.96e-4,5.64e-4 0.0018,9.261e-4 0.0028,0.0015 0.08524,0.054633 0.170688,0.1084433 0.256538,0.1621198 -0.0033,0.00424 -0.0086,0.00978 -0.01173,0.013649 -0.05919,0.07317 -0.05485,0.081737 -0.05485,0.081737 -0.762097,1.0448542 0.115666,1.7222283 0.246588,1.8472116 0.482644,0.4607441 1.72871,0.7310708 1.766899,1.0354392 0.168544,-0.4240376 0.565577,-1.0542897 0.37488,-1.8108961 a 1.631139,1.631139 0 0 0 0.119506,0.019608 1.631139,1.631139 0 0 0 1.131269,-0.4162082 c 0.141425,0.050523 0.256824,0.082417 0.309324,0.099289 0.85834,0.2758299 2.662048,0.2178226 2.896091,0.456097 0.0037,0.00378 0.0073,0.00767 0.01005,0.011596 0.0039,-0.032911 0.0091,-0.067632 0.01554,-0.1034825 0.0063,-0.035851 0.01389,-0.073209 0.02145,-0.1117123 0.105947,-0.5390526 0.273978,-1.3236637 -1.131703,-1.9622555 -0.0022,-9.392e-4 -0.0042,-0.00139 -0.0062,-0.00233 a 2.1748521,2.1748521 0 0 0 0,-7.003e-4 2.1748521,2.1748521 0 0 0 0.108466,-0.5739815 2.1748521,2.1748521 0 0 0 -0.151044,-0.8732601 c 0.385778,-0.5226938 0.709037,-1.2952209 0.955093,-1.2945575 0,0 -1.459593,-0.3733376 -2.4104,-0.1932524 -0.950811,0.1800859 -1.547574,0.4832987 -1.547574,0.4832991 0,0 0.542134,-0.5472302 1.479142,-0.6178085 0.117127,-0.00883 0.243679,-0.010083 0.375529,-0.00596 0.922947,0.028941 2.103303,0.3337134 2.103303,0.3337134 -0.305911,-0.1694625 -0.71512,-0.4873278 -1.238478,-0.5848465 0.466516,-0.4424122 0.87134,-0.8210909 1.101562,-0.75531 -0.539787,-0.535557 -1.260242,-1.59633184 -2.640753,-1.65755026 z m 0.581422,0.29919924 c -0.170926,-5.5854e-4 -1.537083,0.0173686 -2.11756,0.72569172 -0.619762,0.7562638 -0.843438,1.5809766 -0.843438,1.5809766 0,0 -0.03263,-1.2463673 0.670956,-1.7957062 0.659609,-0.51500524 2.111151,-0.51319866 2.290042,-0.51096212 z m -6.031627,0.31722131 c 0.146899,0.28102051 0.742811,1.45549331 0.879377,2.26627221 0.156081,0.9266078 -0.245418,1.5841481 -0.245418,1.5841481 0,0 0.152088,-0.65249 0.09902,-1.6187458 C 89.49514,2.3219489 88.948086,1.2052367 88.808424,0.93260298 Z M 100.27759,2.06631 c -0.0878,-0.00274 -0.18079,6.147e-4 -0.279478,0.012798 -0.01231,0.00151 -0.02422,0.00325 -0.03672,0.00505 -0.100102,0.014332 -0.206023,0.03743 -0.31805,0.071201 -0.01401,0.00422 -0.02844,0.00871 -0.04263,0.01328 -0.08518,0.027362 -0.173997,0.061259 -0.266398,0.101811 -0.985604,0.4325493 -1.004621,0.8354895 -0.849512,0.9861537 0.02784,0.027045 0.04964,0.04775 0.06941,0.065664 -0.0077,0.00652 -0.0136,0.011374 -0.02462,0.020935 -0.01387,0.011962 -0.02752,0.024538 -0.04134,0.03652 -0.02883,0.025126 -0.05809,0.049553 -0.08625,0.075025 a 1.631139,1.631139 0 0 0 -0.100879,-0.030206 c 0.0081,-0.1173953 -0.01861,-0.274683 -0.113461,-0.4572747 -0.0035,-0.00673 -0.0069,-0.013251 -0.0105,-0.020046 -0.07001,-0.1291511 -0.174309,-0.270924 -0.323555,-0.4195821 -0.502729,-0.5007403 -0.823909,-0.1528012 -1.032122,-0.030882 0.116153,0.024992 0.300049,0.6485183 0.503023,0.9789486 a 1.631139,1.631139 0 0 0 -1.073358,1.4619508 1.631139,1.631139 0 0 0 1.573495,1.6873019 1.0874261,1.0874261 0 0 0 1.049014,1.1244 1.0874261,1.0874261 0 0 0 1.124397,-1.0490126 1.0874261,1.0874261 0 0 0 -0.01563,-0.1368952 c 0.0026,5.75e-5 0.0052,2.214e-4 0.0078,2.679e-4 0.05844,0.047889 0.07076,0.046735 0.07076,0.046736 0.34999,0.2638216 0.71506,0.3569799 1.05448,0.3591842 0.0162,9.24e-5 0.0318,-1.466e-4 0.0478,-4.525e-4 0.0161,-3.073e-4 0.0326,-4.6e-4 0.0485,-0.00113 0.0318,-0.00138 0.0631,-0.00374 0.0944,-0.00656 0.60981,-0.054984 1.10664,-0.3716849 1.23477,-0.4414352 0.0364,-0.019779 0.0725,-0.041563 0.10913,-0.064392 0.0121,-0.00761 0.0246,-0.014701 0.0366,-0.022628 0.14589,-0.095048 0.29187,-0.2121691 0.43555,-0.3384267 0.0239,-0.021041 0.0481,-0.042773 0.0718,-0.064278 0.54724,-0.4946557 1.0492,-1.0963869 1.34215,-1.1054196 -0.49302,-0.1958923 -1.17386,-0.6326655 -2.2518,-0.4906796 0.003,-0.00857 0.006,-0.017089 0.0104,-0.025667 0.10725,-0.3033888 0.20054,-0.6092033 0.29413,-0.8606305 0.0104,-0.025131 0.0192,-0.04952 0.0285,-0.073512 0.0938,-0.2399185 0.18916,-0.4198936 0.30065,-0.4815675 -0.67844,0.065466 -1.8138,-0.080123 -3.00795,1.3098024 -0.149269,0.1737409 -0.276046,0.3351979 -0.382333,0.485763 -0.01229,0.017422 -0.02379,0.035063 -0.03555,0.052184 A 1.631139,1.631139 0 0 0 98.455719,3.4783876 c 0.04856,-0.038612 0.09642,-0.077742 0.144611,-0.1165771 0.04061,0.033588 0.05549,0.039393 0.05906,0.040002 0.189705,0.1351438 0.384543,0.1881443 0.567499,0.1939912 0.0096,3.076e-4 0.01923,2.521e-4 0.02881,2.962e-4 0.0096,5.34e-5 0.01929,5.069e-4 0.02881,2.962e-4 0.02849,-5.922e-4 0.05606,-0.00222 0.08381,-0.00483 0.04625,-0.00435 0.09192,-0.011636 0.135664,-0.020597 0.0087,-0.00179 0.01687,-0.00349 0.02549,-0.00543 0.293581,-0.066191 0.519897,-0.218474 0.584517,-0.2559461 0.44844,-0.2600243 0.90779,-0.9542796 1.1469,-0.968107 -0.0235,-0.0086 -0.0478,-0.018389 -0.0729,-0.028531 -0.025,-0.010145 -0.051,-0.021039 -0.0776,-0.032212 -0.21335,-0.089348 -0.48129,-0.2034587 -0.83248,-0.214428 z M 86.968958,3.4482631 c 0.01646,0.063089 0.03766,0.1281041 0.06499,0.1934295 a 1.631139,1.631139 0 0 0 -1.062245,1.1010709 c -0.009,-0.035777 -0.01939,-0.070975 -0.02935,-0.1064454 -0.01347,-0.059976 -0.02674,-0.1204442 -0.03942,-0.1805946 -0.0033,-0.016202 -0.0073,-0.031881 -0.01026,-0.048151 -0.0035,-0.018801 -0.0063,-0.037677 -0.0093,-0.05655 -0.01712,-0.099705 -0.03533,-0.1996571 -0.05358,-0.2991647 0.06789,-0.00341 0.09767,-0.00825 0.108654,-0.011694 0.0032,-0.00107 0.0054,-0.00198 0.0064,-0.00258 0.0011,-6.096e-4 7.51e-4,-0.00138 7.51e-4,-0.00138 0.02008,-0.00222 0.03986,-0.00439 0.05928,-0.00708 0.01941,-0.00267 0.03846,-0.00543 0.05722,-0.00856 0.112579,-0.018774 0.21386,-0.045593 0.304254,-0.078709 0.01506,-0.00552 0.02969,-0.011578 0.04419,-0.017444 0.278607,-0.1128345 0.451065,-0.2884837 0.558379,-0.4761408 z m 14.053832,0.9633044 c -0.0408,0.011991 -0.37345,0.1215124 -0.58186,0.5645894 -0.22231,0.4726189 -0.35573,0.9547846 -0.35573,0.9547846 0,3e-7 0.92334,-0.7186529 1.67849,-0.9749706 0.7081,-0.2403476 1.40244,-0.1179256 1.48725,-0.1016348 -0.1078,-0.018209 -0.76914,-0.109981 -1.56514,0.2395034 -0.87049,0.3822079 -1.6006,0.8371024 -1.6006,0.8371017 0,4e-7 0.11135,-0.7019628 0.3342,-1.0637701 0.20893,-0.339193 0.56028,-0.4438044 0.60339,-0.4556036 z M 89.298201,4.8061363 c 0.01235,8.962e-4 0.02326,0.00178 0.03645,0.00267 a 1.631139,1.631139 0 0 0 0.511364,0.6777148 c -0.02105,0.00922 -0.04198,0.018423 -0.06283,0.028043 -0.01514,0.00694 -0.02982,0.014166 -0.04499,0.02093 -0.01761,0.00774 -0.03574,0.014617 -0.05348,0.022042 -0.06199,0.025508 -0.121602,0.055733 -0.182149,0.084349 -0.02265,0.010747 -0.04597,0.021244 -0.06858,0.032061 -0.01599,0.00759 -0.02871,0.01346 -0.04003,0.018994 -0.02779,-0.036061 -0.05949,-0.076157 -0.101697,-0.127932 -0.03798,-0.046583 -0.08808,-0.091038 -0.148751,-0.1288614 a 1.631139,1.631139 0 0 0 0.02449,-0.199459 1.631139,1.631139 0 0 0 -0.0015,-0.1026649 c 0.02448,-0.058188 0.04659,-0.1169626 0.07004,-0.1753921 0.01269,-0.031799 0.02663,-0.063105 0.03913,-0.094932 0.0089,-0.022446 0.01628,-0.041527 0.02238,-0.05756 z m -0.203162,0.3050188 c 3e-6,9e-7 -0.493513,0.3313842 -0.964501,0.7551445 -0.411251,0.3700134 -0.500129,0.7431777 -0.515926,0.8318517 0.01378,-0.091493 0.08823,-0.4787268 0.397164,-0.8120742 0.353062,-0.3809703 1.083263,-0.774922 1.083263,-0.774922 z m 0.81318,0.42602 a 1.631139,1.631139 0 0 0 0.871695,0.2994279 1.631139,1.631139 0 0 0 0.708234,-0.1349811 1.631139,1.631139 0 0 0 -0.18373,0.6971811 1.631139,1.631139 0 0 0 0.01136,0.1184728 c -0.321492,-0.06865 -0.570812,0.042308 -0.701418,0.1816061 -0.03196,0.034063 -0.05981,0.063868 -0.08397,0.090567 -0.01038,0.011366 -0.01732,0.019863 -0.02634,0.030013 -0.01093,-0.00631 -0.02318,-0.013043 -0.0386,-0.021722 -0.0218,-0.012358 -0.04439,-0.023747 -0.06623,-0.036034 -0.05842,-0.032744 -0.115799,-0.067024 -0.175871,-0.096768 -0.01719,-0.00862 -0.03477,-0.017453 -0.0518,-0.026396 -0.0026,-0.00123 -0.0046,-0.00249 -0.0069,-0.00375 a 1.0874261,1.0874261 0 0 0 -0.654936,-0.774774 c -0.0065,-0.013381 -0.02182,-0.039067 -0.05401,-0.084107 0.08919,-0.047505 0.178482,-0.094754 0.267131,-0.1432529 0.01665,-0.00936 0.03328,-0.019549 0.05018,-0.028481 0.01462,-0.00775 0.02956,-0.014173 0.04432,-0.021656 0.03015,-0.01503 0.06064,-0.03046 0.09083,-0.045347 z m 4.101266,0.1584232 c 0.07423,1.43e-4 0.129889,0.012286 0.152597,0.017945 -0.04845,-0.010383 -0.248063,-0.038982 -0.487826,0.1229466 -0.276181,0.1865242 -0.508215,0.4068944 -0.508215,0.4068944 0,0 1.162797,-0.1272218 1.940228,0.050431 0.742303,0.1696231 1.276688,0.6516393 1.323951,0.6953572 C 96.35943,6.9265045 95.840569,6.4912411 94.967282,6.3698221 94.025625,6.2388973 93.166041,6.2433848 93.166041,6.2433848 c 0,0 1.158737,0.1611486 1.868987,0.5237897 0.621466,0.3173092 1.012313,0.8520106 1.100384,0.9806918 C 96.046806,7.6241617 95.650466,7.119536 94.881809,6.8075443 94.0009,6.4499896 93.166041,6.2433845 93.166041,6.2433839 c 0,0 0.294632,-0.3476663 0.533722,-0.4734833 0.112068,-0.058977 0.223383,-0.074465 0.309722,-0.074302 z" />
    <path
       style="fill:#050000;fill-opacity:1;stroke:none;stroke-width:0.265;stroke-linecap:butt;stroke-linejoin:miter;stroke-miterlimit:4;stroke-dasharray:none;stroke-opacity:1"
       d="M -4.0000134e-8,4.5999997 83.999995,4.9999997 l 0.4,-0.4 -0.4,-0.4 z"
       id="path36408"
       sodipodi:nodetypes="ccccc" />
    <path
       style="fill:#050000;fill-opacity:1;stroke:none;stroke-width:0.265;stroke-linecap:butt;stroke-linejoin:miter;stroke-miterlimit:4;stroke-dasharray:none;stroke-opacity:1"
       d="m 169.99999,4.5999997 -83.999995,0.4 -0.4,-0.4 0.4,-0.4 z"
       id="path36663"
       sodipodi:nodetypes="ccccc" />
    <path
       id="path36687"
       style="fill:#050000;fill-opacity:1;stroke:none;stroke-width:1.00157;stroke-linecap:butt;stroke-linejoin:round;stroke-miterlimit:4;stroke-dasharray:none"
       d="m 321.25977,15.117188 a 2.2677164,2.2677164 0 0 0 -2.26758,2.269531 2.2677164,2.2677164 0 0 0 2.26758,2.267578 2.2677164,2.2677164 0 0 0 2.26757,-2.267578 2.2677164,2.2677164 0 0 0 -2.26757,-2.269531 z m -0.37696,0.378906 a 1.5118109,1.5118109 0 0 1 1.51172,1.511718 1.5118109,1.5118109 0 0 1 -1.51172,1.511719 1.5118109,1.5118109 0 0 1 -1.51367,-1.511719 1.5118109,1.5118109 0 0 1 1.51367,-1.511718 z"
       transform="scale(0.26458333)" />
    <path
       id="path37594"
       style="fill:#000000;fill-opacity:1;stroke:none;stroke-width:0.353394;stroke-linecap:butt;stroke-linejoin:round;stroke-miterlimit:4;stroke-dasharray:none"
       d="M 79.660996,0.00396604 C 79.134769,0.58406684 78.123127,1.3646941 77.950207,2.6531734 77.69182,2.3080573 77.2458,1.9539095 76.525659,1.6417695 c -1.876904,-0.81352906 -2.9889,0.4072025 -3.723244,0.9289642 0.143798,-0.016553 0.325043,0.1406557 0.53197,0.3815345 a 2.1337042,2.1337042 0 0 0 -0.866744,0.593278 c -0.006,-0.00185 -0.01171,-0.00379 -0.01772,-0.00546 -0.116118,-0.031875 -0.248988,-0.029283 -0.399242,0.055624 -0.0065,0.00369 -0.01321,0.0073 -0.01982,0.011311 -0.01319,0.00802 -0.02589,0.016716 -0.03935,0.02605 -0.0013,0.00103 -0.003,0.00209 -0.0046,0.00313 0.0016,-0.00296 0.0027,-0.00628 0.0034,-0.00858 5.7e-4,-0.00167 8.74e-4,-0.0028 4.78e-4,-0.0028 -0.01899,-0.00491 -0.0046,-0.00154 -0.02884,-0.00593 -0.02454,-0.00449 -0.02096,-0.0048 -0.04766,-0.00784 -0.01819,-0.00207 -0.03783,-0.00298 -0.05636,-0.00435 -0.02148,-0.00203 -0.04375,-0.0031 -0.06597,-0.00356 -0.02223,-4.807e-4 -0.04461,-1.668e-4 -0.06707,-1.74e-5 -0.01185,5.37e-5 -0.02346,1.922e-4 -0.03525,1.372e-4 -0.01364,-1.137e-4 -0.02733,-4.833e-4 -0.04085,-7.969e-4 -0.01179,-3.458e-4 -0.02341,-5.543e-4 -0.03531,-5.705e-4 -0.03569,-3.69e-5 -0.07187,7.486e-4 -0.107765,0.00126 -0.01793,2.692e-4 -0.03593,6.447e-4 -0.05385,9.537e-4 -0.0145,2.357e-4 -0.02246,3.205e-4 -0.03246,5.706e-4 0.0027,-0.026026 0.0056,-0.055357 0.0082,-0.093331 0.001,-0.013235 9.8e-4,-0.027146 -5.39e-4,-0.040752 -3.73e-4,-0.0034 -8.61e-4,-0.00616 -0.0015,-0.00956 -0.03114,-0.2013996 -0.339524,-0.417777 -1.264364,-0.1139117 -1.003214,0.3296173 -1.175706,0.966701 -1.360033,1.313521 0.003,-0.0023 0.0053,-0.0048 0.0085,-0.00693 0.02215,-0.014838 0.05137,-0.025187 0.08651,-0.032692 0.005,-0.00109 0.01038,-0.00241 0.01562,-0.00338 0.257614,-0.046204 0.796751,0.059955 1.213824,0.020569 0.02554,-0.00241 0.05079,-0.00538 0.07533,-0.00895 0.0081,-0.0012 0.01587,-0.00201 0.02395,-0.00335 0.008,-0.00133 0.01588,-0.00325 0.02383,-0.00472 0.0079,-0.00146 0.01603,-0.00308 0.02383,-0.00472 0.0084,-0.00174 0.0199,-0.00368 0.03336,-0.00621 0.01346,-0.00252 0.02918,-0.00516 0.04699,-0.0087 0.01784,-0.00351 0.03758,-0.00763 0.05913,-0.012454 0.01078,-0.00241 0.02167,-0.00479 0.03325,-0.00757 0.05789,-0.013968 0.12579,-0.033133 0.197738,-0.059119 0.0144,-0.0052 0.02888,-0.010932 0.04357,-0.016718 0.279443,-0.1098591 0.608679,-0.3279758 0.708771,-0.7739061 0.0022,-0.00276 0.0096,-0.017295 0.01727,-0.067799 0.07318,-0.00386 0.146851,-0.00805 0.220233,-0.012569 0.01391,-9.735e-4 0.02742,-0.002 0.04127,-0.00268 0.01199,-5.96e-4 0.02395,-0.00112 0.03582,-0.00156 0.04421,-0.00137 0.08844,-0.00236 0.132492,-0.00327 0.04426,0.00103 0.08804,0.00322 0.134088,-6.488e-4 -0.05614,0.040681 -0.114226,0.093077 -0.174964,0.1595845 -0.06601,0.072288 -0.121971,0.1426176 -0.169412,0.2102967 -0.0053,0.00753 -0.01112,0.014618 -0.01617,0.02207 -0.164901,0.2430962 -0.217637,0.4525177 -0.21571,0.6061603 a 1.6002782,1.6002782 0 0 0 -0.04985,-7.4e-4 1.6002782,1.6002782 0 0 0 -1.377878,1.1047831 c -1.75225,0.2349645 -2.243373,1.2320991 -2.660914,1.7481736 0.0056,-0.0029 0.01131,-0.00583 0.0173,-0.00833 0.05974,-0.02516 0.141567,-0.03135 0.239307,-0.024501 0.0098,6.906e-4 0.01913,0.00151 0.02923,0.00243 0.525206,0.049176 1.48485,0.4445988 2.188258,0.4348899 0.07339,-0.00101 0.260627,0.00697 0.499811,-0.018254 0.0239,-0.00253 0.04838,-0.00557 0.07326,-0.00878 0.0249,-0.00322 0.05012,-0.00706 0.07584,-0.011078 0.02573,-0.00403 0.05196,-0.00846 0.07842,-0.013357 0.136479,-0.025234 0.281874,-0.062681 0.427298,-0.1180879 a 1.6002782,1.6002782 0 0 0 0.598626,0.098781 c -0.175201,0.4643353 -0.204763,0.8846464 -0.270127,1.1976826 0.0036,-0.0051 0.0077,-0.00985 0.01192,-0.014808 0.262386,-0.3129244 1.620497,-0.3560398 2.373219,-0.7557946 0.173784,-0.092293 1.106506,-0.5021558 1.356934,-1.4017735 a 2.1337042,2.1337042 0 0 0 0.97692,-1.0026884 1.3335652,1.3335652 0 0 0 1.119176,0.4591271 1.3335652,1.3335652 0 0 0 0.320797,-0.067849 2.1337042,2.1337042 0 0 0 0.07494,0.1715473 c -0.37034,-0.1118481 -1.116714,-0.026122 -2.093097,0.7486568 -0.01928,0.015289 -0.03899,0.03046 -0.05842,0.046288 -0.07777,0.06331 -0.156527,0.1311452 -0.237049,0.2034086 -0.261705,0.2348558 -0.442114,0.4521148 -0.561033,0.6532059 -0.0091,0.015464 -0.01748,0.031104 -0.02592,0.046384 -0.421697,0.7638955 0.03657,1.2901751 0.203548,1.6607598 0.100349,-0.2905474 1.84865,-0.7745441 2.582099,-1.2936297 0.148797,-0.1053101 0.917938,-0.5766284 0.929138,-1.1550321 a 2.1337042,2.1337042 0 0 0 0.204099,0.1360413 1.3335652,1.3335652 0 0 0 0.05524,0.032799 c -0.165634,0.1069425 -0.344183,0.2839679 -0.526527,0.5597896 -0.571219,0.8640502 -0.08068,1.5453391 0.104928,1.9668838 0.01714,-0.2373112 0.940101,-0.4901546 1.284262,-0.8640676 0.04521,-0.04913 0.21663,-0.2046113 0.312237,-0.4412264 0.0031,-0.00763 0.0063,-0.015084 0.0092,-0.022881 0.0058,-0.015601 0.01166,-0.032138 0.01677,-0.048397 0.0025,-0.00813 0.0047,-0.015799 0.0071,-0.02409 0.04452,-0.1575525 0.05053,-0.344405 -0.02827,-0.5543036 -0.0041,-0.011051 -0.0085,-0.022324 -0.01311,-0.033497 -0.04166,-0.1005569 -0.102749,-0.2061709 -0.188543,-0.3163933 a 2.1337042,2.1337042 0 0 0 0.151609,-0.00624 2.1337042,2.1337042 0 0 0 0.312081,-0.056071 c 0.112317,0.4842481 0.54345,0.7483191 0.636313,0.8182614 0.228775,0.1723038 0.596176,0.2925083 0.942634,0.3975734 0.0495,0.015008 0.09854,0.029446 0.146746,0.043949 0.385565,0.1160314 0.714566,0.2195379 0.750551,0.365647 0.110277,-0.4119294 0.400976,-1.0302978 0.193008,-1.7064791 A 1.6002782,1.6002782 0 0 0 83.890621,5.8843706 1.6002782,1.6002782 0 0 0 83.103129,4.6484429 c 0.12523,0.041532 0.270069,0.069638 0.43806,0.080168 0,-1.1e-6 0.01036,0.022344 0.376172,2.036e-4 0.01145,-6.932e-4 0.02321,-0.00138 0.03502,-0.00288 0.0059,-7.501e-4 0.01178,-0.00189 0.01775,-0.00284 0.01792,-0.00289 0.03588,-0.00655 0.05438,-0.011382 0.0062,-0.00161 0.01273,-0.00317 0.01895,-0.00503 0.01862,-0.00549 0.03756,-0.012297 0.05645,-0.019852 0.0063,-0.00254 0.0124,-0.005 0.01873,-0.00777 0.0063,-0.00274 0.01237,-0.00545 0.01867,-0.00845 0.0063,-0.00299 0.01294,-0.00664 0.01923,-0.00988 0.05049,-0.025914 0.100655,-0.059633 0.148572,-0.1020988 0.006,-0.0053 0.01214,-0.010429 0.01805,-0.016006 0.248347,-0.2344595 0.424716,-0.711945 0.226535,-1.559884 -0.301987,-1.2920976 -1.367824,-1.3995403 -1.923509,-1.580271 0.07718,0.08233 0.045,0.2899781 -0.02382,0.5516694 -0.0057,0.021808 -0.01186,0.043962 -0.01805,0.06648 -0.117615,0.4278541 -0.310367,0.9762829 -0.283428,1.364035 0.0091,0.1328736 -0.0097,0.7779921 0.514291,1.1256177 0.0055,0.00366 0.01118,0.00747 0.0168,0.011067 A 1.6002782,1.6002782 0 0 0 82.227252,4.423769 C 82.465639,3.5705373 81.989766,2.8179044 81.899263,2.6370171 81.726442,2.2915944 81.393116,1.932929 81.035325,1.5899174 81.002816,1.558733 80.969882,1.5272464 80.937059,1.4963478 80.280353,0.87843127 79.583498,0.3223598 79.660996,0.00396604 Z M 74.496641,1.8320136 c 0.166468,0.00308 1.52387,0.0475 2.345128,0.6778398 0.876014,0.6723642 1.339346,2.145488 1.339346,2.145488 0,-3e-7 -0.536059,-0.982046 -1.415688,-1.8965114 C 75.94159,1.9023688 74.656409,1.8368271 74.496641,1.8320136 Z m 4.946034,-0.3448998 c 0.08496,0.093726 0.824771,0.9272036 1.022508,1.756647 0.209733,0.8797718 -0.146044,1.9335735 -0.146044,1.9335735 0,0 0.110343,-0.8388563 -4.51e-4,-1.8482404 C 80.216869,2.4015217 79.55033,1.6096253 79.442675,1.4871138 Z M 74.50039,5.4874639 c 0.352473,-0.031934 0.643202,0.00177 0.643202,0.00177 0,-7e-7 -0.461574,0.013321 -1.035541,0.1210512 -0.500589,0.093956 -0.972696,0.3716843 -1.085302,0.4411387 0.115212,-0.072686 0.603328,-0.37134 1.048731,-0.4906845 0.143168,-0.038363 0.290984,-0.06078 0.42891,-0.073275 z m 1.150558,-0.00881 c -0.242688,0.1166056 -1.238734,0.6102633 -1.944426,1.1776147 -0.808842,0.6502812 -1.33156,1.1887919 -1.33156,1.1887925 -3e-6,3e-7 0.496234,-0.6747254 1.284979,-1.2423559 0.690152,-0.496676 1.739407,-1.0048794 1.991007,-1.1240513 z m 5.438628,0.6850047 c 0.122527,-0.013249 0.293222,-0.012374 0.500261,0.037718 0.285805,0.06915 0.64227,0.2282689 0.886955,0.3426831 -0.23636,-0.1039189 -0.587605,-0.2431937 -0.860122,-0.285422 -0.416579,-0.064552 -0.693176,-0.050221 -0.734777,-0.047488 0.07151,0.041208 0.364719,0.232536 0.57389,0.706534 0.209829,0.4754909 0.374126,1.3302133 0.411832,1.5364674 C 81.830024,8.2551962 81.666907,7.4512444 81.415289,6.9970762 81.153698,6.5249087 80.917494,6.2580126 80.875025,6.211718 c -0.0044,-0.00479 -0.009,-0.00963 -0.009,-0.00963 0,0 0.0048,0.00278 0.01379,0.00785 0.01956,-0.0075 0.09195,-0.033535 0.209856,-0.046286 z m -3.455083,0.5487509 c 0.05074,-0.00424 0.101356,-0.00737 0.150751,-0.00823 0.526917,-0.00913 1.056934,0.1897313 1.056934,0.1897313 0,-10e-7 -0.450616,-0.098471 -1.033593,-0.1328749 -0.375092,-0.022138 -0.757633,0.055897 -0.984201,0.1147564 -0.05867,0.017408 -0.149355,0.041559 -0.176324,0.050445 0.03306,-0.010533 0.09574,-0.029509 0.176324,-0.050445 0.192636,-0.057146 0.486009,-0.1362864 0.810109,-0.1633748 z" />
    <path
       style="fill:#0c0000;stroke-width:0.115767;stroke-linecap:round;stroke-linejoin:round;stroke-miterlimit:4;stroke-dasharray:none"
       id="path39662"
       d="m 83.853822,4.9949968 c 0.0078,-0.047878 0.0244,-0.093671 0.03908,-0.1397242 0.01144,-0.043754 0.02238,-0.087638 0.03325,-0.1315394 0.0028,-0.011826 0.0062,-0.023556 0.0088,-0.035441 0.0031,-0.013733 0.0055,-0.027592 0.0082,-0.041393 0.02152,-0.1036006 0.04436,-0.206916 0.06711,-0.3102546 0.014,-0.05922 0.02177,-0.1196284 0.0318,-0.1795868 0.0035,-0.020649 0.0075,-0.041217 0.01056,-0.06193 0.0023,-0.015571 0.01504,-0.1182179 0.01697,-0.1331645 0.0064,-0.05492 0.0091,-0.076114 0.01462,-0.1307332 0.0022,-0.02051 0.0045,-0.041014 0.0059,-0.06159 0.0013,-0.02138 0.0017,-0.042806 0.0023,-0.064212 0.0017,-0.064197 0.0012,-0.06626 9.51e-4,-0.1304598 -0.005,-0.093178 -0.01053,-0.1863592 -0.0223,-0.2789705 -0.0066,-0.05219 -0.01113,-0.077731 -0.01939,-0.1294654 -0.0154,-0.068551 -0.02566,-0.1381488 -0.03996,-0.2069131 -0.005,-0.023941 -0.01092,-0.04767 -0.01627,-0.071533 -0.01364,-0.060884 -0.01703,-0.077414 -0.02991,-0.1375794 -0.01332,-0.054773 -0.02075,-0.1112009 -0.03764,-0.1651185 -0.01523,-0.04858 -0.03813,-0.094044 -0.06062,-0.1395074 -0.03012,-0.055082 -0.06764,-0.1055665 -0.10523,-0.1556698 -0.0014,-0.00227 0.03066,-0.023149 0.03213,-0.020878 v 0 c 0.04633,0.047883 0.09173,0.096911 0.125489,0.1548758 0.0087,0.01527 0.01781,0.030283 0.02601,0.04581 0.04437,0.084027 0.07749,0.174161 0.103911,0.2652527 0.01518,0.057234 0.022,0.080233 0.03453,0.1388384 0.01997,0.093413 0.03504,0.1878599 0.05014,0.282147 0.0084,0.04598 0.01598,0.086032 0.0229,0.1323303 0.01422,0.095232 0.02186,0.1914172 0.01967,0.2877596 4.4e-5,0.022403 3.71e-4,0.0448 1.2e-5,0.067197 -0.0011,0.066996 -0.0025,0.066378 -0.007,0.1327967 -0.0043,0.065625 -0.0076,0.1313773 -0.01641,0.1966205 -0.01557,0.1086269 -0.0034,0.028083 -0.02132,0.1347512 -0.0035,0.020807 -0.0066,0.041682 -0.0102,0.062475 -0.0106,0.061036 -0.02369,0.121533 -0.03654,0.1821211 -0.01191,0.050905 -0.01418,0.06271 -0.02766,0.1129918 -0.0047,0.01782 -0.01007,0.035487 -0.01486,0.053295 -0.01286,0.047567 -0.02446,0.095497 -0.03974,0.1423842 -0.0043,0.013475 -0.0089,0.026866 -0.01293,0.040418 -0.0035,0.011739 -0.0064,0.02364 -0.0097,0.035429 -0.0125,0.044652 -0.02544,0.089376 -0.04314,0.1322945 -0.0071,0.01849 -0.01439,0.037996 -0.02235,0.056165 -0.01168,0.026684 -0.01095,0.02332 -0.0239,0.047906 -0.01275,0.024185 -0.0042,0.00975 -0.01606,0.028803 -5.45e-4,0.00149 -0.02157,-0.00549 -0.02108,-0.00698 z" />
    <path
       style="fill:#0c0000;stroke-width:0.115767;stroke-linecap:round;stroke-linejoin:round;stroke-miterlimit:4;stroke-dasharray:none"
       id="path39666"
       d="m 83.853822,4.9949968 c 0.0078,-0.047878 0.0244,-0.093671 0.03908,-0.1397242 0.01144,-0.043754 0.02238,-0.087638 0.03325,-0.1315394 0.0028,-0.011826 0.0062,-0.023556 0.0088,-0.035441 0.0031,-0.013733 0.0055,-0.027592 0.0082,-0.041393 0.02152,-0.1036006 0.04436,-0.206916 0.06711,-0.3102546 0.014,-0.05922 0.02177,-0.1196284 0.0318,-0.1795868 0.0035,-0.020649 0.0075,-0.041217 0.01056,-0.06193 0.0023,-0.015571 0.01504,-0.1182179 0.01697,-0.1331645 0.0064,-0.05492 0.0091,-0.076114 0.01462,-0.1307332 0.0022,-0.02051 0.0045,-0.041014 0.0059,-0.06159 0.0013,-0.02138 0.0017,-0.042806 0.0023,-0.064212 0.0017,-0.064197 0.0012,-0.06626 9.51e-4,-0.1304598 -0.005,-0.093178 -0.01053,-0.1863592 -0.0223,-0.2789705 -0.0066,-0.05219 -0.01113,-0.077731 -0.01939,-0.1294654 -0.0154,-0.068551 -0.02566,-0.1381488 -0.03996,-0.2069131 -0.005,-0.023941 -0.01092,-0.04767 -0.01627,-0.071533 -0.01364,-0.060884 -0.01703,-0.077414 -0.02991,-0.1375794 -0.01332,-0.054773 -0.02075,-0.1112009 -0.03764,-0.1651185 -0.01523,-0.04858 -0.03813,-0.094044 -0.06062,-0.1395074 -0.03012,-0.055082 -0.06764,-0.1055665 -0.10523,-0.1556698 -0.0014,-0.00227 0.03066,-0.023149 0.03213,-0.020878 v 0 c 0.04633,0.047883 0.09173,0.096911 0.125489,0.1548758 0.0087,0.01527 0.01781,0.030283 0.02601,0.04581 0.04437,0.084027 0.07749,0.174161 0.103911,0.2652527 0.01518,0.057234 0.022,0.080233 0.03453,0.1388384 0.01997,0.093413 0.03504,0.1878599 0.05014,0.282147 0.0084,0.04598 0.01598,0.086032 0.0229,0.1323303 0.01422,0.095232 0.02186,0.1914172 0.01967,0.2877596 4.4e-5,0.022403 3.71e-4,0.0448 1.2e-5,0.067197 -0.0011,0.066996 -0.0025,0.066378 -0.007,0.1327967 -0.0043,0.065625 -0.0076,0.1313773 -0.01641,0.1966205 -0.01557,0.1086269 -0.0034,0.028083 -0.02132,0.1347512 -0.0035,0.020807 -0.0066,0.041682 -0.0102,0.062475 -0.0106,0.061036 -0.02369,0.121533 -0.03654,0.1821211 -0.01191,0.050905 -0.01418,0.06271 -0.02766,0.1129918 -0.0047,0.01782 -0.01007,0.035487 -0.01486,0.053295 -0.01286,0.047567 -0.02446,0.095497 -0.03974,0.1423842 -0.0043,0.013475 -0.0089,0.026866 -0.01293,0.040418 -0.0035,0.011739 -0.0064,0.02364 -0.0097,0.035429 -0.0125,0.044652 -0.02544,0.089376 -0.04314,0.1322945 -0.0071,0.01849 -0.01439,0.037996 -0.02235,0.056165 -0.01168,0.026684 -0.01095,0.02332 -0.0239,0.047906 -0.01275,0.024185 -0.0042,0.00975 -0.01606,0.028803 -5.45e-4,0.00149 -0.02157,-0.00549 -0.02108,-0.00698 z" />
  </g>
</svg>
